<?xml version="1.0" encoding="UTF-8"?>
<svg xmlns="http://www.w3.org/2000/svg" viewBox="0 0 76 38" width="19px" height="9.5px" >
    <defs>
        <filter id="blurFilter">
            <feGaussianBlur in="SourceGraphic" stdDeviation="0.15" />
        </filter>
    </defs>
    <g id="main" filter="url(#blurFilter)">
        <path d="M33.0931443,0 C47.2873812,0 59.6639297,7.78244901 66.1885806,19.3131378 C64.0596725,19.5880031 61.9872598,20.0381919 59.9850374,20.6492684 C54.286941,11.8345956 44.3714141,6 33.0931443,6 C21.8148746,6 11.8993477,11.8345956 6.20032034,20.6500301 C4.19931802,20.0382802 2.12721464,19.5881331 -8.83737528e-14,19.3138862 C6.52235901,7.78244901 18.8989075,0 33.0931443,0 Z"
              style="opacity: 0.02;"></path>
        <path d="M33.0931443,6 C44.3714141,6 54.286941,11.8345956 59.9859684,20.6500301 C58.664105,21.0524158 57.3737228,21.5255892 56.1182167,22.0644626 C51.0648417,14.7744751 42.6365622,10 33.0931443,10 C23.5497265,10 15.121447,14.7744751 10.0666246,22.0651067 C8.81246658,21.525561 7.52233602,21.0524789 6.20166667,20.6493952 C11.8993477,11.8345956 21.8148746,6 33.0931443,6 Z"
              style="opacity: 0.125;"></path>
        <path d="M33.0931443,10 C42.6365622,10 51.0648417,14.7744751 56.1196641,22.0651067 C54.8721889,22.5992679 53.6605126,23.198785 52.4874167,23.8587851 C48.1220926,17.882887 41.0610669,14 33.0931443,14 C25.1252218,14 18.0641961,17.882887 13.6990341,23.8596941 C12.5257107,23.1987385 11.3137421,22.5990861 10.0674064,22.0641769 C15.121447,14.7744751 23.5497265,10 33.0931443,10 Z"
              style="opacity: 0.05;"></path>
        <path d="M33.0931443,14 C41.0610669,14 48.1220926,17.882887 52.4872546,23.8596941 C51.0265337,24.6806983 49.6254822,25.5964103 48.2924291,26.5977542 C44.8265096,21.9842144 39.3083273,19 33.0931443,19 C26.8779614,19 21.3597791,21.9842144 17.8933001,26.5979404 C16.5608699,25.5964579 15.1598882,24.6807854 13.6990804,23.8589024 C18.0641961,17.882887 25.1252218,14 33.0931443,14 Z"
              style="opacity: 0.125;"></path>
        <path d="M33.0931443,19 C39.3083273,19 44.8265096,21.9842144 48.2929886,26.5979404 C47.2227979,27.4012246 46.1969463,28.2598278 45.2190934,29.1693444 C42.4921197,25.4300405 38.0764152,23 33.0931443,23 C28.1098735,23 23.694169,25.4300405 20.9663724,29.16978 C19.9899686,28.2603452 18.9637037,27.4013716 17.8936232,26.5975766 C21.3597791,21.9842144 26.8779614,19 33.0931443,19 Z"
              style="opacity: 0.05;"></path>
        <path d="M33.0931443,23 C38.0764152,23 42.4921197,25.4300405 45.2199163,29.16978 C43.7018196,30.5805852 42.3001066,32.1144046 41.0297155,33.7550414 C39.5147006,30.9250162 36.5287283,29 33.0931443,29 C29.6579676,29 26.6722959,30.92456 25.1555459,33.7542633 C23.8857893,32.1140093 22.4845488,30.580723 20.9678242,29.1699295 C23.694169,25.4300405 28.1098735,23 33.0931443,23 Z"
              style="opacity: 0.125;"></path>
        <path d="M33.0931443,29 C36.5287283,29 39.5147006,30.9250162 41.031282,33.7552696 C40.2925789,34.7070108 39.5996562,35.6949438 38.9540264,36.7157613 C38.3677738,34.0194924 35.9662979,32 33.0931443,32 C30.2199908,32 27.8185149,34.0194924 27.2307507,36.7164432 C26.5866325,35.6949438 25.8937098,34.7070108 25.1565732,33.7550414 C26.6715881,30.9250162 29.6575604,29 33.0931443,29 Z"
              style="opacity: 0.05;"></path>
        <path d="M33.0931443,32 C35.9662979,32 38.3677738,34.0194924 38.955538,36.7164432 C38.6239303,37.2399945 38.304863,37.7722431 37.9987291,38.3127628 C36.3937515,38.1067971 34.7559198,38 33.0931443,38 C31.4307129,38 29.793215,38.1067529 28.1871317,38.3137775 C27.8821752,37.7716598 27.5631363,37.2388765 27.2316305,36.7147624 C27.819106,34.0189953 30.2203444,32 33.0931443,32 Z"
              style="opacity: 0.125;"></path>
    </g>
    <use href="#main" x="38" y="-19"></use>
    <use href="#main" x="-38" y="-19"></use>
    <use href="#main" x="38" y="19"></use>
    <use href="#main" x="-38" y="19"></use>
</svg>
