<svg xmlns="http://www.w3.org/2000/svg" height="27px" width="22px" viewBox="0 0 28.3 23">
    <defs>
        <style>
            .st0{fill:var(--m-test,#871616);}
        </style>
    </defs>
    <filter id="blur">
        <feGaussianBlur in="SourceGraphic" stdDeviation="0.4"/>
    </filter>
    <filter id="blur2">
        <feGaussianBlur in="SourceGraphic" stdDeviation="0.8"/>
    </filter>
    <filter id="dropshadow" width="200%" height="200%" x="-50%" y="-50%">
        <feDropShadow dx="0" dy="2" stdDeviation="2" flood-opacity="0.8"/>
    </filter>

    <g filter="url('#dropshadow')">
        <g filter="url('#blur')">
            <path d="M6.3,14.8c-0.1,0-0.1,0-0.1,0c-0.1,0-0.2-0.1-0.2-0.2C6,14.5,6,14.3,6,14.2c0,0,0-0.1,0-0.1c0-0.1-0.1-0.2-0.1-0.3
		c0,0,0,0,0-0.1c0-0.2-0.1-0.5-0.1-0.7c0-0.1,0-0.2,0-0.2c0-0.1,0-0.2,0-0.3c0-0.1,0-0.2,0-0.3c0-0.1,0-0.3,0-0.4c0,0,0,0,0-0.1
		c0-0.2,0-0.3,0.1-0.5c0,0,0-0.1,0-0.2c0-0.1,0-0.3,0.1-0.4C6,10.7,6,10.6,6,10.6c0-0.2,0-0.4,0.1-0.6c0,0,0-0.1,0.1-0.2
		c0-0.1,0.1-0.2,0.1-0.3c0-0.1,0.1-0.2,0.1-0.2c0-0.1,0-0.2,0.1-0.3c0.1-0.1,0.1-0.2,0-0.3c0-0.1-0.1,0-0.2,0c-0.1,0-0.2,0-0.1-0.1
		c0-0.1,0.1-0.2,0.2-0.3c0,0,0.1,0,0.1,0c0.1,0,0.2,0,0.2-0.2c0-0.1,0-0.2,0-0.2c0-0.1,0.1-0.1,0.2-0.2C6.9,7.5,7,7.5,7,7.4
		C7.2,7.2,7.3,7,7.5,6.7c0.1-0.1,0.2-0.2,0.2-0.3c0.2-0.3,0.5-0.5,0.7-0.7c0.1-0.1,0.2-0.2,0.4-0.3C8.9,5.2,9.1,5,9.3,4.9
		c0.1-0.1,0.2-0.1,0.3-0.2c0.1-0.1,0.2-0.1,0.3-0.2c0.2-0.1,0.3-0.2,0.4-0.3c0.1-0.1,0.2-0.1,0.3-0.1c0,0,0.1,0.1,0.1,0.1
		c0,0,0,0.1-0.1,0.1c-0.4,0.1-0.6,0.4-1,0.6C9.5,5.1,9.4,5.2,9.3,5.3C9.1,5.4,8.9,5.6,8.7,5.7C8.6,5.8,8.6,5.9,8.5,6
		c-0.1,0.1,0,0.1,0,0.1c0.1,0,0.2,0,0.3-0.1C9,5.9,9.2,5.8,9.3,5.7C9.5,5.5,9.8,5.3,10,5.2c0,0,0,0,0.1,0c0.2-0.1,0.3-0.1,0.5-0.2
		c0,0,0.1-0.1,0.1-0.1c0.1-0.2,0.2-0.2,0.4-0.1c0,0,0.1,0,0.1,0c0.2-0.1,0.4-0.2,0.6-0.3c0.1,0,0.1-0.1,0.2-0.1
		c0.1,0,0.2-0.1,0.3-0.1c0.1,0,0.2,0,0.3-0.1c0,0,0.1,0,0.1,0c0.1,0,0.1,0,0.2,0c0,0,0.1-0.1,0.1-0.1c0,0-0.1-0.1-0.1-0.1
		c-0.2,0-0.4,0-0.6,0.1c-0.1,0-0.3,0.1-0.4,0.1c0,0-0.1,0-0.1,0c-0.1,0.1-0.3,0.1-0.5,0.1c-0.1,0-0.1-0.1-0.1-0.1
		c0-0.1,0-0.1,0.1-0.2c0,0,0.1-0.1,0.1-0.1c0.1,0,0.2,0,0.4,0c0.1,0,0.3,0,0.4-0.1c0,0,0.1,0,0.1,0c0.2,0,0.4,0,0.5-0.1
		c0.2,0,0.4-0.1,0.5-0.2c0.1,0,0.2-0.1,0.3-0.1c0.2,0,0.3,0,0.5,0c0,0,0.1,0,0.1,0c0.2,0.1,0.5,0.1,0.7,0c0.1,0,0.3,0,0.4,0
		c0.2,0.1,0.5,0.1,0.7,0.1c0.2,0,0.4,0,0.5,0.1c0,0,0.1,0,0.1,0c0,0,0.1,0,0.1,0c0,0,0.1,0.1,0.1,0.1c0,0,0,0.1-0.1,0.1
		c0,0-0.1,0-0.2,0c-0.1-0.1-0.2-0.1-0.3-0.1c-0.2,0-0.4,0-0.6,0c-0.1,0-0.2,0-0.2,0c-0.1,0-0.1,0-0.2,0c-0.1,0-0.2-0.1-0.2,0
		c-0.3,0.1-0.7,0.1-1,0.1c-0.1,0-0.3,0-0.4,0.1c0,0-0.1,0-0.2,0c0,0-0.1,0-0.1,0c0,0-0.1,0.1-0.1,0.1c0,0,0.1,0.1,0.1,0.1
		c0.1,0,0.2,0,0.2,0c0.4,0,0.8,0,1.2,0c0.2,0,0.4,0.1,0.6,0.1c0.2,0,0.5,0.1,0.7,0c0,0,0.1,0,0.1,0.1c0.1,0.1,0.1,0.2,0.2,0
		c0.1-0.1,0.2,0,0.2,0c0.1,0.1,0.3,0.2,0.5,0.3c0.1,0.1,0.3,0,0.4-0.1c0,0,0.1,0,0.1-0.1c0,0,0,0.1,0,0.1c0,0,0,0.1,0,0.1
		c0.1,0.2,0.3,0.2,0.5,0.3c0,0,0.1,0,0.1-0.1c0,0,0-0.1,0-0.2c0,0,0-0.1,0.1-0.1c0,0,0.1,0,0.1,0c0.1,0.1,0.2,0.2,0.2,0.3
		c0,0.1,0.1,0.1,0.2,0.1c0.1,0,0.2,0,0.2,0C19,4.9,19.1,5,19.2,5.1c0.1,0,0.1,0.1,0.2,0.1c0.2,0,0.4,0.1,0.6,0.3
		c0.1,0.1,0.2,0.1,0.2,0.1c0.1,0,0.2,0.1,0.2,0.1c0.1,0.2,0.2,0.2,0.4,0.3c0.1,0.1,0.2,0.2,0.3,0.3c0.3,0.2,0.5,0.5,0.7,0.7
		c0.2,0.2,0.4,0.5,0.6,0.8c0.2,0.3,0.3,0.6,0.4,0.8c0,0,0,0.1,0.1,0.1c0,0,0.1,0.1,0.1,0.1c0,0.3,0.2,0.4,0.2,0.7c0,0,0,0.1,0,0.1
		c0.1,0.1,0.1,0.2,0.1,0.4c0,0.1,0,0.2,0,0.3c0.1,0.2,0.1,0.4,0,0.6c0,0,0,0.1,0,0.1c0.1,0.1,0.1,0.3,0.1,0.4c0,0.2,0,0.4,0.1,0.6
		c0,0,0,0.1,0,0.2c0,0.4,0,0.8,0,1.1c0,0.1,0,0.1,0,0.2c0,0.1,0,0.3-0.1,0.4c0,0,0,0.1,0,0.2c0,0.2,0,0.3,0,0.5
		c0,0.1-0.1,0.2-0.1,0.2c-0.1,0.1-0.1,0.2-0.1,0.4c0,0.1,0,0.2-0.1,0.3c0,0,0,0.1,0,0.1c0,0.1,0,0.1,0,0.2c-0.2,0.2-0.2,0.5-0.3,0.7
		c0,0,0,0.1-0.1,0.1c0,0-0.1,0-0.1,0.1c0,0.2-0.2,0.4-0.4,0.6c0,0,0,0.1,0,0.1c0,0.2-0.2,0.4-0.4,0.5c-0.1,0-0.1,0-0.2,0
		c0-0.1,0-0.1,0-0.2c0.1-0.1,0.2-0.3,0.3-0.4c0.2-0.2,0.2-0.5,0.5-0.6c0,0,0.1-0.1,0.1-0.1c0-0.2,0.2-0.4,0.2-0.6
		c0-0.1,0.1-0.2,0.1-0.3c0-0.1,0.1-0.2,0.1-0.2c0.1-0.1,0.2-0.3,0.2-0.5c0-0.2,0.1-0.3,0.1-0.4c0-0.1,0-0.2,0-0.2c0,0,0,0,0,0
		c0,0,0,0,0,0.1c0,0.1,0,0.2,0,0.3c-0.1,0.2-0.2,0.3-0.2,0.5c0,0,0,0,0,0c-0.2,0.1-0.1,0.4-0.3,0.6c0,0,0,0.1,0,0.2c0,0,0,0.1,0,0.1
		c-0.1,0.2-0.3,0.4-0.4,0.7c0,0-0.1,0.1-0.1,0.1c-0.1,0.2-0.3,0.4-0.4,0.7c-0.1,0.1-0.2,0.1-0.2,0.2c-0.3,0.3-0.6,0.6-0.8,0.9
		c-0.1,0.1-0.2,0.1-0.3,0c-0.1-0.1-0.1-0.3,0-0.3c0.2-0.1,0.3-0.3,0.5-0.4c0,0,0.1-0.1,0.1-0.1c0.1-0.1,0.1-0.2,0.2-0.2
		c0,0,0.1-0.1,0.1-0.1c0-0.1,0.1-0.2,0.2-0.2c0.2,0,0.2,0,0.1-0.2c-0.1-0.1,0-0.2,0.1-0.3c0-0.1,0.1-0.1,0.1-0.2
		c0.1-0.3,0.2-0.6,0.4-0.8c0.1-0.1,0.2-0.3,0.3-0.4c0,0,0-0.1,0-0.2c0-0.1,0-0.1,0-0.2c0-0.1,0.1-0.2,0.1-0.3c0-0.1,0-0.2,0.1-0.3
		c0-0.1,0.1-0.2,0.1-0.2c-0.1-0.3,0-0.6,0-0.9c0-0.1,0-0.2,0-0.2c0,0-0.1-0.1-0.1-0.1c0,0-0.1,0.1-0.1,0.1c0,0.2,0,0.5,0,0.7
		c0,0.1,0,0.1,0,0.2c-0.2,0.2-0.2,0.4-0.2,0.6c0,0.2-0.1,0.3-0.2,0.5c0,0.1-0.1,0.2-0.1,0.3c0,0.1-0.1,0.2-0.1,0.2
		c-0.1,0.2-0.2,0.3-0.3,0.5c-0.2,0.3-0.3,0.6-0.6,0.8c0,0-0.1,0.1-0.1,0.1c0,0.2-0.2,0.3-0.3,0.5c-0.1,0.1-0.1,0.2-0.2,0.3
		c-0.1,0.1-0.2,0.3-0.4,0.4c-0.2,0.2-0.4,0.4-0.6,0.6c-0.1,0.1-0.3,0.2-0.4,0.3c-0.1,0.1-0.2,0.1-0.3,0.2c-0.3,0.2-0.5,0.3-0.8,0.5
		c0,0,0,0.1-0.1,0.1c0,0,0.1,0,0.1,0c0.2-0.1,0.4-0.1,0.5-0.3c0.2-0.2,0.5-0.3,0.7-0.5c0.1-0.1,0.3-0.2,0.4-0.3
		c0.1-0.1,0.1-0.1,0.2,0c0.2,0.2,0.2,0.2,0,0.4c-0.1,0.1-0.2,0.1-0.2,0.3c0,0.1,0.1,0.1,0.1,0.2c0,0,0.1-0.1,0.1-0.1
		c0,0,0-0.1,0.1-0.1c0.1,0,0.2-0.2,0.3-0.3c0.1-0.1,0.2-0.2,0.3-0.3c0.2-0.2,0.3-0.3,0.5-0.5c0,0,0.1-0.1,0.1-0.1
		c0.1,0,0.2,0,0.2,0.1c0,0.1-0.1,0.2-0.1,0.3c-0.2,0.2-0.5,0.4-0.7,0.6c-0.1,0.1-0.3,0.3-0.4,0.3c-0.2,0.1-0.3,0.2-0.4,0.4
		c-0.1,0.1-0.2,0.2-0.3,0.2c0,0-0.1,0-0.1,0c-0.1,0.1-0.2,0.2-0.3,0.3c0,0,0,0-0.1,0c-0.3,0-0.4,0.2-0.7,0.3c-0.2,0-0.3,0.1-0.5,0.1
		c0,0-0.1,0-0.1,0.1c-0.1,0.1-0.2,0.1-0.3,0.1c-0.1,0-0.2,0.1-0.3,0.1c-0.2,0-0.5,0.1-0.7,0.1c-0.1,0-0.2,0-0.3,0.1c0,0-0.1,0-0.1,0
		c-0.3,0-0.6,0-0.9,0C15,21,15,21,15,20.9c0-0.1,0.1-0.1,0.1-0.1c0.1,0,0.2,0,0.3,0c0.1,0,0.3-0.1,0.4-0.1c0.1,0,0.2,0,0.3,0
		c0.2,0,0.4,0,0.6-0.1c0.1-0.1,0.2,0,0.3-0.1c0.2,0,0.4-0.1,0.6-0.2c0,0,0.1,0,0.1,0c0.1,0,0.2,0,0.3-0.1c0,0,0,0,0.1,0
		c0.2-0.1,0.4-0.1,0.7-0.2c0.2-0.1,0.3-0.2,0.5-0.3c0,0,0.1,0,0.1-0.1c0.1-0.1,0.3-0.1,0.4-0.2c0,0,0.1-0.1,0.1-0.1
		c0,0-0.1-0.1-0.1-0.1c-0.1,0-0.2,0.1-0.4,0.1c-0.1,0.1-0.3,0.2-0.4,0.3c-0.2,0.1-0.3,0.2-0.5,0.2c-0.1,0.1-0.3,0.1-0.4,0.2
		c-0.1,0-0.2,0-0.3,0.1c-0.2,0.1-0.4,0.1-0.5,0.2c-0.2,0.1-0.3,0.1-0.5,0.1c-0.1,0-0.3,0-0.4,0.1c-0.1,0.1-0.2,0-0.3-0.1
		c-0.1-0.1-0.2-0.1-0.3,0c0,0.1-0.1,0.1-0.2,0.1c-0.1,0-0.3,0-0.4,0.1c-0.4,0-0.8,0-1.2,0c-0.1,0-0.2,0-0.3,0.2
		c-0.1,0.1-0.2,0.1-0.3,0.1c-0.2-0.1-0.4-0.2-0.6-0.1c0,0-0.1,0-0.1,0c-0.2,0-0.3-0.1-0.5-0.2c-0.2-0.1-0.5-0.1-0.7-0.1
		c-0.1,0-0.2-0.1-0.4-0.1c0,0,0,0,0,0c-0.3-0.1-0.6-0.2-0.9-0.3c0,0-0.1,0-0.1,0c-0.2-0.2-0.5-0.2-0.7-0.3c-0.1-0.1-0.2-0.1-0.3-0.2
		c-0.1-0.2-0.3-0.2-0.4-0.3c-0.2-0.1-0.4-0.2-0.6-0.4c-0.1-0.1-0.3-0.2-0.4-0.3c-0.2-0.3-0.5-0.4-0.7-0.8c0,0-0.1-0.1-0.1-0.1
		c-0.1-0.1-0.2-0.1-0.3-0.3c0-0.1-0.1-0.1-0.1-0.1c-0.1-0.1,0-0.2,0.1-0.2c0.1,0,0.2,0,0.2,0.1c0.1,0.1,0.2,0.2,0.3,0.3
		c0.1,0.2,0.3,0.3,0.4,0.4C7.8,18,8,18.1,8.1,18.2c0.2,0.1,0.3,0.3,0.5,0.4c0.1,0.1,0.2,0.2,0.3,0.3C9,19,9.1,19,9.2,19.1
		c0,0,0,0,0,0c0.2,0,0.4,0.2,0.5,0.3c0,0,0.1,0,0.1,0c0-0.1,0-0.2,0-0.2c-0.3,0-0.4-0.3-0.6-0.4c-0.1-0.1-0.2-0.2-0.2-0.2
		c-0.1,0-0.1-0.1-0.2-0.1c-0.1-0.1-0.2-0.2-0.3-0.3c-0.1-0.1-0.1-0.1-0.2-0.2c-0.1-0.1-0.2-0.2-0.3-0.4c0,0-0.1-0.1-0.1-0.1
		c-0.1-0.1-0.2-0.1-0.2-0.2c0,0,0-0.1-0.1-0.1c-0.2-0.1-0.3-0.3-0.3-0.5c0,0-0.1-0.1-0.1-0.1c-0.1-0.1-0.2-0.2-0.2-0.3
		c-0.1-0.1-0.2-0.3-0.2-0.4c-0.1-0.2-0.3-0.4-0.3-0.6c0,0,0,0,0,0C6.2,15.2,6.1,15,6.3,14.8L6.3,14.8z M6.6,11C6.6,11,6.6,11,6.6,11
		c0.2,0,0.3-0.1,0.2-0.3c0-0.1,0-0.2,0.1-0.3c0.1-0.1,0.1-0.1,0-0.2c0-0.1,0-0.2,0-0.3c0-0.2,0.1-0.4,0.2-0.7c0,0,0-0.1,0.1-0.1
		c0.1-0.2,0.2-0.3,0.3-0.5c0,0,0-0.1,0-0.1c0,0-0.1,0-0.1,0C7.2,8.7,7.1,8.7,7.1,8.8C7.1,9,7,9.1,6.8,9.2c0,0-0.1,0.1-0.1,0.2
		c0,0.2,0,0.4-0.1,0.6c0,0,0,0.1,0,0.1c0,0.2,0,0.4-0.1,0.6c0,0,0,0.1,0,0.1C6.4,10.8,6.3,11,6.1,11C6,11,6,11.2,6,11.3
		c0,0.2,0,0.3,0,0.5c0,0.3,0,0.5,0.1,0.8c0.1,0.2,0.1,0.4,0.1,0.6c0,0.2,0,0.4,0.1,0.6c0.1,0.3,0.2,0.6,0.3,0.9
		c0,0.1,0.1,0.2,0.1,0.3c0,0.1,0,0.1,0,0.2c-0.1,0.1-0.1,0.3,0.1,0.3c0.1,0,0.2,0.1,0.2,0.2c0,0,0.1,0.1,0.1,0.1
		c0.1,0,0.1-0.1,0.2-0.2c0-0.1,0-0.2,0-0.2c0,0-0.1-0.1-0.1-0.1C7,15,6.9,14.8,6.8,14.7c-0.1-0.2-0.2-0.4-0.2-0.5
		c-0.1-0.2-0.1-0.2,0.1-0.4c0.1-0.1,0.1-0.2,0-0.3c0,0-0.1,0-0.1-0.1c0-0.2-0.1-0.3-0.1-0.5c0-0.1,0-0.2-0.1-0.2c0,0,0-0.1,0-0.2
		c0-0.1,0-0.2,0-0.2c0-0.1,0-0.1,0.1-0.2c0,0,0.1,0,0.2,0c0,0,0,0,0.1,0.1c0.1,0.1,0.2,0,0.2,0c0.1-0.1,0.1-0.2,0-0.2
		c0,0-0.1-0.1-0.1-0.1c-0.1,0-0.1-0.1-0.1-0.2c0-0.1,0.1-0.2,0.1-0.3C6.8,11.2,6.8,11.1,6.6,11C6.7,11.1,6.6,11.1,6.6,11L6.6,11z
		 M7.3,15.9c-0.1,0-0.1,0.1-0.2,0.1c0,0.1,0,0.2,0.1,0.2c0,0,0.1,0.1,0.1,0.1c0,0.1,0.1,0.2,0.2,0.3c0.1,0.1,0.2,0.2,0.1,0.3
		c0,0,0.1,0.1,0.1,0.1c0.2,0,0.3,0.2,0.4,0.3c0.1,0.1,0.1,0.1,0.2,0.1c0.1,0,0.1,0,0.2,0.1C8.7,17.7,8.8,17.9,9,18
		c0,0.1,0.1,0.1,0.2,0.1c0.2,0,0.2,0.1,0.1,0.2c0,0.1,0,0.2,0.1,0.3c0.2,0.1,0.4,0.2,0.6,0.3c0.1,0.1,0.3,0.2,0.4,0.3
		c0.1,0.1,0.2,0,0.2,0c0.1-0.1,0-0.1,0-0.1c-0.1,0-0.2-0.1-0.3-0.2c-0.2-0.2-0.3-0.3-0.4-0.5c0-0.1-0.1-0.2-0.2-0.3c0,0,0,0-0.1-0.1
		c-0.1-0.1-0.3-0.2-0.4-0.3c-0.2-0.2-0.5-0.3-0.6-0.6c0,0-0.1-0.1-0.1-0.1c-0.1-0.1-0.2-0.1-0.2-0.2c0-0.2-0.1-0.3-0.2-0.3
		c-0.1-0.1-0.2-0.3-0.4-0.3c-0.1,0-0.1-0.1-0.1-0.2C7.5,15.9,7.4,15.9,7.3,15.9L7.3,15.9z M12.7,19.1C12.7,19.2,12.7,19.2,12.7,19.1
		c0,0.2-0.1,0.3-0.3,0.4c-0.1,0-0.1-0.1-0.1-0.2c0,0,0-0.1-0.1-0.1c0,0-0.1,0-0.1,0.1c0,0,0,0.1,0,0.1c0,0.1,0,0.1,0,0.2
		c-0.1,0.1,0,0.2,0.1,0.2c0.1,0,0.2,0.1,0.3,0.1c0.1,0,0.2,0,0.2-0.1c0.1-0.2,0.2-0.3,0.4-0.1c0.1,0.1,0.2,0.1,0.2,0.1
		c0.3,0.1,0.5,0,0.8,0.1c0,0,0.1,0,0.1,0c0.1,0,0.2-0.1,0.3-0.1c0.1,0,0.2-0.1,0.2-0.2c0-0.1,0-0.2-0.1-0.2c-0.1,0-0.2,0-0.2,0.1
		c0,0.1-0.1,0.2-0.1,0.2c-0.2,0-0.5,0-0.7,0c-0.2,0-0.3-0.2-0.5-0.3c0,0-0.1,0-0.2,0c-0.1,0-0.1,0-0.2-0.1
		C12.8,19.2,12.8,19.2,12.7,19.1L12.7,19.1z M8.4,6.5C8.4,6.5,8.4,6.5,8.4,6.5c-0.1,0-0.2,0-0.3,0.1C8.1,6.6,8,6.7,8,6.7
		C7.9,6.9,7.7,7,7.6,7.1C7.6,7.2,7.5,7.3,7.4,7.4C7.3,7.5,7.2,7.7,7.1,7.9C7.1,8,7.1,8.1,7.2,8.1c0.1,0.1,0.2,0,0.3-0.2
		c0-0.1,0.1-0.2,0.2-0.3C7.8,7.4,8,7.3,8.1,7.1c0,0,0-0.1,0.1-0.1c0-0.1,0.1-0.2,0.1-0.3C8.3,6.6,8.4,6.5,8.4,6.5L8.4,6.5z
		 M19.5,5.5C19.4,5.5,19.4,5.5,19.5,5.5c-0.1,0.1,0,0.2,0,0.2c0.2,0.1,0.5,0.3,0.7,0.4c0.2,0.1,0.4,0.3,0.6,0.4
		c0.2,0.2,0.4,0.4,0.6,0.5c0.1,0.1,0.2,0.2,0.3,0.2c0,0,0.1,0,0.1,0c0-0.1,0-0.1-0.1-0.2c-0.1-0.1-0.2-0.2-0.3-0.3
		c-0.1-0.1-0.3-0.3-0.5-0.4c-0.2-0.1-0.3-0.3-0.5-0.4c-0.1-0.1-0.3-0.2-0.4-0.3c0,0,0,0,0,0c-0.1,0-0.2-0.1-0.2-0.1
		C19.6,5.5,19.6,5.5,19.5,5.5z M16.5,18.6c-0.1,0-0.3,0.1-0.3,0.3c0,0.1,0,0.2-0.1,0.2c-0.1,0.1-0.1,0.1-0.2,0.2c0,0-0.1,0.1,0,0.1
		c0,0,0.1,0.1,0.1,0.1c0.1,0,0.1,0,0.2,0c0,0,0.1,0,0.1-0.1c0.2,0,0.4-0.1,0.5-0.3c0.1-0.1,0.2-0.1,0.2-0.1c0,0,0.1,0,0.1-0.1
		c0,0,0-0.1,0-0.1c-0.1-0.1-0.3-0.1-0.4-0.1C16.7,18.6,16.6,18.6,16.5,18.6L16.5,18.6z M11.6,19.6c0.2,0,0.2-0.1,0.2-0.2
		c0,0,0-0.1,0-0.1c0-0.2,0-0.2-0.2-0.2c-0.2,0-0.3,0-0.4-0.2c-0.1-0.1-0.1-0.1-0.2-0.1c-0.1,0-0.2,0-0.2,0.1c0,0.1,0.1,0.1,0.1,0.1
		c0.1,0.1,0.3,0.2,0.4,0.3c0,0,0,0,0,0C11.3,19.5,11.4,19.6,11.6,19.6z M22.7,8.7c0-0.1-0.1-0.1-0.1-0.2c0-0.1-0.1-0.2-0.1-0.2
		c0,0,0-0.1-0.1-0.1c-0.1-0.2-0.2-0.3-0.3-0.4C22,7.7,22,7.6,21.9,7.5c0,0-0.1-0.1-0.1,0c0,0.1,0,0.2,0,0.2C21.9,7.8,22,7.9,22,8
		c0,0,0.1,0.1,0.1,0.1c0.1,0.1,0.2,0.2,0.2,0.3c0,0.2,0.1,0.2,0.2,0.3C22.6,8.7,22.6,8.7,22.7,8.7L22.7,8.7z M15.4,18.9
		C15.4,18.9,15.4,18.8,15.4,18.9c-0.1,0-0.2,0-0.3,0c0,0-0.1,0.1-0.1,0.1c0,0,0.1,0.1,0.1,0.1c0.2,0,0.4,0,0.6,0
		c0.1,0,0.2,0,0.3-0.2c0,0,0-0.1,0-0.1c0,0-0.1,0-0.1,0C15.7,18.8,15.5,18.8,15.4,18.9L15.4,18.9z M17.1,20L17.1,20
		c-0.1-0.1-0.2-0.2-0.3-0.2c0,0-0.1,0-0.1,0c-0.1,0.1-0.2,0.1-0.3,0.1c0,0-0.1,0-0.2,0c-0.1,0-0.1,0.1-0.1,0.1c0,0,0.1,0.1,0.2,0.1
		C16.6,20.1,16.8,20,17.1,20L17.1,20z M15.5,19.3c-0.1,0-0.2,0-0.3,0.1c0,0,0,0.1-0.1,0.2c0,0,0.1,0.1,0.1,0.1c0.1,0,0.2,0,0.2,0
		c0,0,0.1-0.1,0.1-0.1C15.6,19.4,15.5,19.3,15.5,19.3L15.5,19.3z M10.2,18.4C10.2,18.4,10.2,18.5,10.2,18.4c0,0.1,0,0.2,0,0.2
		c0,0.1,0.1,0.1,0.2,0.2c0,0,0.1,0,0.1,0c0,0,0,0,0-0.1C10.6,18.7,10.3,18.4,10.2,18.4L10.2,18.4z M13.9,19.2
		c0.1-0.1,0.1-0.1,0.2-0.2c0,0,0-0.1,0-0.1c-0.1,0-0.2,0-0.2,0c0,0,0,0,0,0c0,0-0.1,0.1-0.1,0.1C13.7,19.1,13.8,19.2,13.9,19.2z
		 M7,8.2C6.9,8.3,6.8,8.3,6.7,8.4C6.8,8.5,7,8.4,7,8.2z"/>
            <path d="M5.8,15.4c0-0.1,0-0.2-0.1-0.3c0,0-0.1-0.1,0-0.2c0-0.1,0-0.2-0.1-0.3c-0.1-0.1-0.2-0.2-0.1-0.4c0-0.1,0-0.3-0.1-0.4
		c0,0,0-0.1-0.1-0.2c0-0.2,0-0.5,0-0.7c0-0.1,0-0.3,0-0.4c0-0.1,0-0.2-0.1-0.3c0-0.1,0-0.2,0-0.3c0-0.1,0.1-0.1,0.1-0.2
		c0-0.4,0-0.8,0.1-1.2c0,0,0-0.1,0-0.1c0.1-0.1,0.1-0.3,0.1-0.4c0-0.1,0.1-0.1,0.1-0.2c0-0.1,0.1-0.2,0.1-0.3C5.7,9.4,5.8,9.2,5.9,9
		c0-0.1,0-0.1,0.1-0.2c0,0,0.1-0.1,0.1-0.1c0,0,0.1,0.1,0.1,0.1c0,0.1,0,0.2-0.1,0.3C6.1,9.2,6,9.2,6,9.3c0,0.1-0.1,0.2-0.1,0.3
		c0,0,0,0.1,0,0.1c0,0.1-0.1,0.3-0.1,0.4c-0.1,0.2-0.1,0.4-0.1,0.6c0,0.2-0.1,0.4-0.1,0.6c0,0.1-0.1,0.2-0.1,0.3c0,0.4,0,0.8,0,1.2
		c0,0.1,0,0.2,0.1,0.3c0,0.1,0.1,0.3,0.1,0.4c0,0.3,0.1,0.5,0.1,0.8c0,0,0,0,0,0c0.1,0.1,0.1,0.3,0.1,0.5c0,0,0,0.1,0.1,0.1
		C5.9,15,6,15.1,6,15.2c0,0.1,0.1,0.2,0.1,0.2c0,0.1,0.1,0.2,0.1,0.3c0,0,0,0.1,0,0.1c0.1,0.2,0.3,0.4,0.4,0.7c0,0,0,0.1,0,0.2
		c0,0,0,0.1,0,0.1s-0.1,0-0.1,0c-0.1-0.1-0.2-0.1-0.2-0.2c-0.1-0.1-0.1-0.2-0.2-0.4C6,15.9,6,15.7,5.8,15.5
		C5.8,15.5,5.8,15.5,5.8,15.4L5.8,15.4z"/>
            <path d="M14.7,21c-0.1,0-0.2-0.1-0.3-0.1c0,0-0.1,0-0.1,0c-0.1,0-0.2,0-0.2,0c0,0-0.1-0.1-0.1-0.1c0,0,0-0.1,0.1-0.1
		c0.1-0.1,0.3,0,0.3,0.1c0,0,0.1,0.1,0.1,0.1c0.1,0,0.2,0,0.3,0c0.1,0,0.1,0,0.1,0.1C14.9,21,14.8,21,14.7,21
		C14.8,21,14.7,21,14.7,21C14.7,21,14.7,21,14.7,21L14.7,21z"/>
            <path d="M9.9,4.3C9.8,4.3,9.8,4.2,9.7,4.2c0,0,0-0.1,0.1-0.1C9.9,4,9.9,4,10,3.9c0,0,0.1,0,0.2,0c0,0,0,0.1,0,0.1
		C10,4.2,10,4.2,9.9,4.3z"/>
            <path d="M17.2,3.7c0.2,0,0.2,0.1,0.2,0.2c0,0.1-0.1,0.1-0.1,0.1C17.2,4,17,3.9,17,3.8C17.1,3.8,17.1,3.7,17.2,3.7z"/>
            <path d="M24,10.1c-0.1,0.1-0.1,0.2-0.2,0.2c-0.1,0-0.1-0.1-0.1-0.2c0-0.1,0-0.2,0.1-0.2C23.9,9.9,24,10,24,10.1L24,10.1z"/>
            <path d="M9.5,4.5C9.4,4.5,9.4,4.6,9.3,4.6S9.2,4.5,9.2,4.5c0,0,0.1-0.1,0.1-0.1C9.4,4.4,9.4,4.4,9.5,4.5L9.5,4.5z"/>
            <path d="M23.8,9.4c-0.1,0-0.1,0.1-0.1,0.1c0,0-0.1-0.1-0.1-0.1s0-0.1,0.1-0.1C23.7,9.3,23.7,9.4,23.8,9.4L23.8,9.4z"/>
            <path d="M6.5,11.8c-0.1,0-0.2-0.1-0.2-0.1c0,0-0.1-0.1-0.1-0.1c0,0,0-0.1,0.1-0.1c0,0,0.1,0,0.1,0C6.4,11.6,6.4,11.7,6.5,11.8
		L6.5,11.8z"/>
            <path d="M16.8,18.8c-0.1,0-0.1,0-0.2,0c0,0,0,0,0-0.1C16.6,18.7,16.7,18.7,16.8,18.8C16.8,18.8,16.8,18.8,16.8,18.8L16.8,18.8z"/>
        </g>
        <g filter="url('#blur2')">
            <path class="st0" d="M10.6,13.4C10.5,13.4,10.5,13.4,10.6,13.4c-0.1,0-0.2,0-0.1-0.1c0-0.1,0-0.2,0-0.2c0,0,0,0,0-0.1
		c0,0,0-0.1,0-0.1c0,0,0,0,0,0c0-0.1,0-0.2,0-0.3c0,0,0-0.1,0-0.1v-0.2c0,0,0-0.1,0-0.1c0-0.1,0-0.1,0-0.2c0,0,0,0,0,0
		c0-0.1,0-0.2,0.1-0.2c0,0,0-0.1,0-0.1c0-0.1,0-0.1,0-0.2c0,0,0-0.1,0-0.1c0-0.1,0-0.2,0.1-0.3c0,0,0-0.1,0-0.1c0,0,0-0.1,0.1-0.1
		c0,0,0-0.1,0-0.1c0-0.1,0-0.1,0.1-0.1c0,0,0-0.1,0-0.1c0,0-0.1,0-0.1,0c-0.1,0-0.1,0-0.1-0.1c0,0,0.1-0.1,0.1-0.2c0,0,0,0,0.1,0
		c0.1,0,0.1,0,0.1-0.1c0,0,0-0.1,0-0.1c0,0,0.1-0.1,0.1-0.1c0,0,0.1,0,0.1-0.1c0.1-0.1,0.1-0.2,0.2-0.3c0-0.1,0.1-0.1,0.1-0.2
		c0.1-0.2,0.2-0.2,0.3-0.4c0.1-0.1,0.1-0.1,0.2-0.2c0.1-0.1,0.2-0.1,0.3-0.2c0,0,0.1,0,0.1-0.1c0,0,0.1-0.1,0.2-0.1
		c0.1,0,0.1-0.1,0.2-0.1c0.1,0,0.1,0,0.2,0c0,0,0,0,0,0c0,0,0,0.1,0,0.1c-0.2,0.1-0.3,0.2-0.5,0.3c-0.1,0-0.1,0.1-0.2,0.1
		c-0.1,0.1-0.2,0.1-0.2,0.2c0,0-0.1,0.1-0.1,0.1c0,0,0,0.1,0,0.1c0.1,0,0.1,0,0.2-0.1C11.9,9.2,12,9.1,12,9c0.1-0.1,0.2-0.2,0.3-0.2
		c0,0,0,0,0,0c0.1,0,0.2-0.1,0.2-0.1c0,0,0,0,0.1-0.1c0.1-0.1,0.1-0.1,0.2-0.1c0,0,0.1,0,0.1,0c0.1-0.1,0.2-0.1,0.3-0.1
		c0,0,0.1,0,0.1,0c0,0,0.1,0,0.1,0c0.1,0,0.1,0,0.1-0.1c0,0,0,0,0.1,0c0,0,0.1,0,0.1,0c0,0,0,0,0-0.1c0,0,0,0-0.1,0
		c-0.1,0-0.2,0-0.3,0c-0.1,0-0.1,0-0.2,0c0,0,0,0-0.1,0c-0.1,0.1-0.2,0.1-0.2,0.1c0,0-0.1,0-0.1,0c0,0,0-0.1,0-0.1c0,0,0,0,0.1,0
		c0.1,0,0.1,0,0.2,0c0.1,0,0.1,0,0.2-0.1c0,0,0,0,0.1,0c0.1,0,0.2,0,0.3,0c0.1,0,0.2-0.1,0.3-0.1c0,0,0.1,0,0.1,0c0.1,0,0.2,0,0.2,0
		c0,0,0,0,0,0c0.1,0.1,0.2,0,0.3,0c0.1,0,0.2,0,0.2,0c0.1,0,0.2,0,0.3,0c0.1,0,0.2,0,0.2,0c0,0,0,0,0,0c0,0,0.1,0,0.1,0
		c0,0,0,0,0.1,0.1c0,0,0,0.1,0,0.1c0,0-0.1,0-0.1,0c0,0-0.1,0-0.1,0c-0.1,0-0.2,0-0.3,0h-0.1c0,0-0.1,0-0.1,0s-0.1,0-0.1,0
		c-0.2,0.1-0.3,0-0.5,0c-0.1,0-0.1,0-0.2,0c0,0-0.1,0-0.1,0c0,0,0,0-0.1,0c0,0,0,0-0.1,0c0,0,0,0,0,0c0,0,0.1,0,0.1,0
		c0.2,0,0.4,0,0.6,0c0.1,0,0.2,0,0.3,0c0.1,0,0.2,0,0.3,0c0,0,0.1,0,0.1,0c0,0.1,0.1,0.1,0.1,0c0,0,0.1,0,0.1,0
		c0.1,0.1,0.1,0.1,0.2,0.1c0.1,0,0.1,0,0.2-0.1c0,0,0,0,0.1,0c0,0,0,0,0,0.1c0,0,0,0,0,0c0.1,0.1,0.2,0.1,0.2,0.1c0,0,0,0,0,0
		c0,0,0,0,0-0.1s0,0,0-0.1c0,0,0.1,0,0.1,0c0,0,0.1,0.1,0.1,0.1c0,0,0,0,0.1,0c0,0,0.1,0,0.1,0c0.1,0,0.1,0.1,0.2,0.1
		c0,0,0.1,0,0.1,0c0.1,0,0.2,0.1,0.3,0.1c0,0,0.1,0,0.1,0c0,0,0.1,0,0.1,0.1c0,0.1,0.1,0.1,0.2,0.2c0.1,0,0.1,0.1,0.2,0.1
		c0.1,0.1,0.2,0.2,0.4,0.4c0.1,0.1,0.2,0.2,0.3,0.4c0.1,0.1,0.1,0.3,0.2,0.4c0,0,0,0,0,0c0,0,0,0,0,0c0,0.1,0.1,0.2,0.1,0.3
		c0,0,0,0,0,0c0.1,0,0.1,0.1,0.1,0.2c0,0,0,0.1,0,0.1c0,0.1,0,0.2,0,0.3c0,0,0,0,0,0.1c0,0.1,0.1,0.1,0,0.2c0,0.1,0,0.2,0.1,0.3
		c0,0,0,0,0,0.1c0,0.2,0,0.4,0,0.5c0,0,0,0.1,0,0.1c0,0.1,0,0.1-0.1,0.2c0,0,0,0.1,0,0.1c0,0.1,0,0.2,0,0.2c0,0,0,0.1-0.1,0.1
		c0,0-0.1,0.1,0,0.2c0,0.1,0,0.1,0,0.1c0,0,0,0,0,0.1c0,0,0,0.1,0,0.1c-0.1,0.1-0.1,0.2-0.2,0.3c0,0,0,0,0,0.1c0,0,0,0,0,0
		c0,0.1-0.1,0.2-0.2,0.3c0,0,0,0,0,0.1c0,0.1-0.1,0.2-0.2,0.2c0,0-0.1,0-0.1,0c0,0,0-0.1,0-0.1c0.1-0.1,0.1-0.1,0.1-0.2
		c0.1-0.1,0.1-0.2,0.2-0.3c0,0,0,0,0,0c0-0.1,0.1-0.2,0.1-0.3c0,0,0-0.1,0.1-0.1c0,0,0-0.1,0.1-0.1c0.1-0.1,0.1-0.1,0.1-0.2
		c0-0.1,0-0.1,0-0.2c0,0,0-0.1,0-0.1c0,0,0,0,0,0s0,0,0,0c0,0,0,0.1,0,0.1c0,0.1-0.1,0.2-0.1,0.3v0c-0.1,0.1-0.1,0.2-0.1,0.3
		c0,0,0,0,0,0.1c0,0,0,0,0,0c-0.1,0.1-0.1,0.2-0.2,0.3c0,0,0,0,0,0.1c-0.1,0.1-0.1,0.2-0.2,0.3c0,0-0.1,0.1-0.1,0.1
		c-0.1,0.1-0.3,0.3-0.4,0.4c0,0-0.1,0-0.1,0c0,0,0-0.1,0-0.2c0.1-0.1,0.2-0.1,0.2-0.2c0,0,0,0,0.1-0.1c0,0,0-0.1,0.1-0.1
		c0,0,0,0,0.1-0.1c0-0.1,0-0.1,0.1-0.1c0.1,0,0.1,0,0.1-0.1c0-0.1,0-0.1,0-0.2c0,0,0.1-0.1,0.1-0.1c0-0.1,0.1-0.3,0.2-0.4
		c0.1-0.1,0.1-0.2,0.2-0.2c0,0,0-0.1,0-0.1c0,0,0-0.1,0-0.1c0,0,0-0.1,0-0.1c0-0.1,0-0.1,0.1-0.2c0,0,0-0.1,0-0.1c0-0.1,0-0.3,0-0.4
		c0,0,0-0.1,0-0.1c0,0,0,0,0-0.1c0,0,0,0,0,0.1c0,0.1,0,0.2,0,0.3c0,0,0,0.1,0,0.1c-0.1,0.1-0.1,0.2-0.1,0.3c0,0.1-0.1,0.2-0.1,0.2
		c0,0,0,0.1-0.1,0.1c0,0,0,0.1,0,0.1c0,0.1-0.1,0.2-0.1,0.3c-0.1,0.1-0.2,0.3-0.3,0.4c0,0,0,0,0,0c0,0.1-0.1,0.2-0.2,0.2
		c0,0-0.1,0.1-0.1,0.1c-0.1,0.1-0.1,0.1-0.2,0.2c-0.1,0.1-0.2,0.2-0.3,0.3c-0.1,0.1-0.1,0.1-0.2,0.1c0,0-0.1,0.1-0.1,0.1
		c-0.1,0.1-0.3,0.2-0.4,0.2c0,0,0,0,0,0.1c0,0,0,0,0.1,0c0.1,0,0.2-0.1,0.2-0.1c0.1-0.1,0.2-0.1,0.3-0.2c0.1,0,0.1-0.1,0.2-0.1
		c0,0,0.1,0,0.1,0c0.1,0.1,0.1,0.1,0,0.2c-0.1,0-0.1,0.1-0.1,0.1c0,0,0,0.1,0,0.1c0,0,0,0,0.1,0c0,0,0,0,0,0c0.1,0,0.1-0.1,0.2-0.1
		c0.1,0,0.1-0.1,0.2-0.1c0.1-0.1,0.2-0.2,0.2-0.2c0,0,0,0,0.1,0c0,0,0.1,0,0.1,0.1c0,0,0,0.1-0.1,0.1c-0.1,0.1-0.2,0.2-0.3,0.3
		c-0.1,0.1-0.1,0.1-0.2,0.2c-0.1,0-0.2,0.1-0.2,0.2c0,0.1-0.1,0.1-0.2,0.1c0,0,0,0,0,0c-0.1,0-0.1,0.1-0.2,0.1c0,0,0,0,0,0
		c-0.1,0-0.2,0.1-0.3,0.1c-0.1,0-0.2,0-0.2,0c0,0,0,0-0.1,0c0,0.1-0.1,0.1-0.2,0.1c-0.1,0-0.1,0-0.2,0c-0.1,0-0.2,0-0.3,0.1
		c-0.1,0-0.1,0-0.2,0c0,0,0,0,0,0h-0.4c0,0-0.1,0-0.1-0.1c0,0,0-0.1,0.1-0.1c0.1,0,0.1,0,0.2,0c0.1,0,0.1,0,0.2,0c0,0,0.1,0,0.1,0
		c0.1,0,0.2,0,0.3,0c0,0,0.1,0,0.2,0c0.1,0,0.2,0,0.3-0.1c0,0,0,0,0.1,0c0,0,0.1,0,0.1-0.1c0,0,0,0,0,0c0.1,0,0.2-0.1,0.3-0.1
		c0.1,0,0.2-0.1,0.2-0.1c0,0,0,0,0.1,0c0.1,0,0.1-0.1,0.2-0.1c0,0,0,0,0-0.1c0,0,0,0-0.1,0c-0.1,0-0.1,0-0.2,0.1
		c-0.1,0-0.1,0.1-0.2,0.1c-0.1,0-0.2,0.1-0.2,0.1c-0.1,0-0.1,0.1-0.2,0.1c0,0-0.1,0-0.1,0c-0.1,0-0.2,0-0.2,0.1
		c-0.1,0.1-0.2,0.1-0.2,0.1c-0.1,0-0.1,0-0.2,0c-0.1,0-0.1,0-0.1,0c-0.1-0.1-0.1-0.1-0.1,0c0,0-0.1,0-0.1,0c-0.1,0-0.1,0-0.2,0
		c-0.2,0-0.4,0-0.6,0c-0.1,0-0.1,0-0.1,0.1c0,0.1-0.1,0.1-0.1,0c-0.1,0-0.2-0.1-0.3-0.1c0,0,0,0,0,0c-0.1,0-0.2-0.1-0.2-0.1
		c-0.1,0-0.2,0-0.3-0.1c-0.1,0-0.1,0-0.2,0c0,0,0,0,0,0c-0.1,0-0.3-0.1-0.4-0.1c0,0,0,0,0,0c-0.1-0.1-0.2-0.1-0.4-0.2
		c0,0-0.1-0.1-0.1-0.1c-0.1-0.1-0.1-0.1-0.2-0.1c-0.1-0.1-0.2-0.1-0.3-0.2c0-0.1-0.1-0.1-0.2-0.2c-0.1-0.1-0.3-0.2-0.3-0.4
		c0,0,0,0,0,0c-0.1,0-0.1-0.1-0.1-0.1c0,0,0,0,0-0.1c0,0,0-0.1,0-0.1c0.1,0,0.1,0,0.1,0.1c0,0.1,0.1,0.1,0.1,0.2
		c0.1,0.1,0.2,0.1,0.2,0.2c0,0.1,0.1,0.1,0.2,0.2c0.1,0.1,0.1,0.1,0.2,0.2c0.1,0,0.1,0.1,0.1,0.1c0.1,0,0.1,0.1,0.2,0.1c0,0,0,0,0,0
		c0.1,0,0.2,0.1,0.3,0.1c0,0,0,0,0.1,0c0,0,0-0.1,0-0.1c-0.1,0-0.2-0.1-0.3-0.2c0,0-0.1-0.1-0.1-0.1c0,0-0.1,0-0.1-0.1
		c-0.1,0-0.1-0.1-0.2-0.2c0,0-0.1-0.1-0.1-0.1c-0.1-0.1-0.1-0.1-0.2-0.2c0,0,0,0-0.1-0.1c0,0-0.1-0.1-0.1-0.1c0,0,0,0,0,0
		c-0.1,0-0.1-0.1-0.1-0.2c0,0,0,0-0.1-0.1c-0.1,0-0.1-0.1-0.1-0.1c0-0.1-0.1-0.1-0.1-0.2c-0.1-0.1-0.1-0.2-0.2-0.3v0
		C10.5,13.6,10.5,13.5,10.6,13.4L10.6,13.4L10.6,13.4z M10.7,11.6C10.7,11.6,10.8,11.6,10.7,11.6c0.1,0,0.1-0.1,0.1-0.1
		c0-0.1,0-0.1,0-0.1c0,0,0-0.1,0-0.1c0,0,0-0.1,0-0.1c0-0.1,0.1-0.2,0.1-0.3c0,0,0,0,0-0.1c0-0.1,0.1-0.2,0.1-0.2c0,0,0,0,0,0
		c0,0,0,0,0,0c0,0-0.1,0.1-0.1,0.1c0,0.1-0.1,0.1-0.1,0.2c0,0,0,0.1,0,0.1c0,0.1,0,0.2-0.1,0.3c0,0,0,0,0,0c0,0.1,0,0.2,0,0.3
		c0,0,0,0,0,0c0,0-0.1,0.1-0.2,0.1c-0.1,0-0.1,0.1-0.1,0.1c0,0.1,0,0.2,0,0.2c0,0.1,0,0.2,0,0.4c0,0.1,0.1,0.2,0,0.3
		c0,0.1,0,0.2,0,0.3c0.1,0.1,0.1,0.3,0.1,0.4c0,0.1,0,0.1,0.1,0.2c0,0,0,0.1,0,0.1c0,0.1,0,0.1,0,0.1c0.1,0,0.1,0,0.1,0.1
		c0,0,0,0,0,0c0,0,0.1,0,0.1-0.1c0,0,0-0.1,0-0.1c0,0,0,0,0,0c0-0.1-0.1-0.2-0.1-0.3c0-0.1-0.1-0.2-0.1-0.3c0-0.1,0-0.1,0-0.2
		c0,0,0-0.1,0-0.1c0,0-0.1,0-0.1,0c0-0.1,0-0.2,0-0.2c0,0,0-0.1,0-0.1c0,0,0-0.1,0-0.1c0,0,0-0.1,0-0.1c0,0,0-0.1,0-0.1
		c0,0,0.1,0,0.1,0c0,0,0,0,0,0c0,0,0.1,0,0.1,0c0,0,0-0.1,0-0.1c0,0,0,0-0.1,0c0,0-0.1-0.1,0-0.1c0-0.1,0-0.1,0.1-0.2
		C10.8,11.7,10.8,11.7,10.7,11.6C10.8,11.7,10.8,11.6,10.7,11.6L10.7,11.6L10.7,11.6z M11,13.9C11,13.9,11,14,11,13.9
		C11,14,11,14.1,11,14.1c0,0,0.1,0,0.1,0.1c0,0.1,0,0.1,0.1,0.1c0.1,0,0.1,0.1,0.1,0.1c0,0,0,0.1,0,0.1c0.1,0,0.2,0.1,0.2,0.1
		c0,0,0,0.1,0.1,0.1c0,0,0.1,0,0.1,0c0.1,0.1,0.1,0.1,0.2,0.2c0,0,0.1,0,0.1,0.1c0.1,0,0.1,0,0.1,0.1c0,0,0,0.1,0,0.1
		c0.1,0.1,0.2,0.1,0.3,0.2c0.1,0,0.1,0.1,0.2,0.1c0,0,0.1,0,0.1,0c0,0,0-0.1,0-0.1c-0.1,0-0.1,0-0.2-0.1c-0.1-0.1-0.2-0.1-0.2-0.2
		c0-0.1-0.1-0.1-0.1-0.2c0,0,0,0,0,0c-0.1,0-0.1-0.1-0.2-0.1c-0.1-0.1-0.2-0.1-0.3-0.3c0,0,0,0-0.1,0c0,0-0.1-0.1-0.1-0.1
		c0-0.1-0.1-0.1-0.1-0.2c-0.1,0-0.1-0.1-0.2-0.1C11.1,14.1,11.1,14.1,11,13.9C11.2,14,11.1,13.9,11,13.9L11,13.9L11,13.9z
		 M13.7,15.5C13.7,15.5,13.7,15.5,13.7,15.5c0,0.1,0,0.2-0.1,0.2c-0.1,0-0.1,0-0.1-0.1c0,0,0,0,0-0.1c0,0,0,0-0.1,0c0,0,0,0,0,0.1
		c0,0,0,0.1,0,0.1c0,0.1,0,0.1,0,0.1c0.1,0,0.1,0,0.2,0c0,0,0.1,0,0.1,0c0.1-0.1,0.1-0.1,0.2-0.1c0,0,0.1,0,0.1,0
		c0.1,0,0.2,0,0.4,0.1c0,0,0,0,0,0c0.1,0,0.1,0,0.2,0c0.1,0,0.1,0,0.1-0.1c0,0,0-0.1,0-0.1c-0.1,0-0.1,0-0.1,0.1c0,0,0,0.1-0.1,0.1
		c-0.1,0-0.2,0-0.3,0c-0.1,0-0.2-0.1-0.2-0.1c0,0-0.1,0-0.1,0C13.8,15.6,13.7,15.6,13.7,15.5C13.7,15.5,13.7,15.5,13.7,15.5
		L13.7,15.5L13.7,15.5z M11.6,9.4L11.6,9.4c-0.1,0-0.1,0-0.1,0c0,0-0.1,0-0.1,0.1c-0.1,0.1-0.1,0.1-0.2,0.2c0,0-0.1,0.1-0.1,0.1
		C11.1,9.9,11,10,11,10.1c0,0,0,0.1,0,0.1c0.1,0,0.1,0,0.2-0.1c0-0.1,0.1-0.1,0.1-0.2c0.1-0.1,0.1-0.2,0.2-0.3c0,0,0,0,0-0.1
		C11.5,9.6,11.5,9.5,11.6,9.4C11.5,9.5,11.6,9.5,11.6,9.4L11.6,9.4L11.6,9.4z M16.9,8.9L16.9,8.9C16.9,9,16.9,9,16.9,8.9
		c0.1,0.2,0.2,0.2,0.3,0.3c0.1,0.1,0.2,0.1,0.3,0.2c0.1,0.1,0.2,0.2,0.3,0.3c0,0,0.1,0.1,0.1,0.1c0,0,0,0,0.1,0c0,0,0-0.1,0-0.1
		c0-0.1-0.1-0.1-0.1-0.1c-0.1-0.1-0.2-0.1-0.2-0.2c-0.1-0.1-0.1-0.1-0.2-0.2c-0.1,0-0.1-0.1-0.2-0.1c0,0,0,0,0,0c0,0-0.1,0-0.1-0.1
		C17,9,17,9,16.9,8.9L16.9,8.9z M15.5,15.3c-0.1,0-0.2,0.1-0.1,0.1c0,0,0,0.1-0.1,0.1c0,0-0.1,0-0.1,0.1c0,0,0,0,0,0c0,0,0,0,0,0
		c0,0,0.1,0,0.1,0c0,0,0,0,0.1,0c0.1,0,0.2-0.1,0.3-0.1c0,0,0.1,0,0.1-0.1c0,0,0,0,0.1,0c0,0,0-0.1,0-0.1
		C15.7,15.2,15.7,15.2,15.5,15.3C15.6,15.2,15.5,15.2,15.5,15.3C15.5,15.3,15.5,15.3,15.5,15.3z M13.1,15.7c0.1,0,0.1,0,0.1-0.1
		c0,0,0,0,0,0c0-0.1,0-0.1-0.1-0.1c-0.1,0-0.1,0-0.2-0.1c0,0-0.1,0-0.1,0c0,0-0.1,0-0.1,0c0,0,0,0,0.1,0.1c0.1,0,0.1,0.1,0.2,0.1
		c0,0,0,0,0,0C13,15.7,13,15.7,13.1,15.7L13.1,15.7z M18.5,10.5C18.4,10.5,18.4,10.4,18.5,10.5c-0.1-0.1-0.1-0.2-0.1-0.2
		c0,0,0,0,0,0c0-0.1-0.1-0.1-0.1-0.2c0,0-0.1-0.1-0.1-0.1c0,0-0.1,0-0.1,0c0,0,0,0.1,0,0.1c0,0,0.1,0.1,0.1,0.1c0,0,0,0,0,0
		c0,0,0.1,0.1,0.1,0.2C18.3,10.5,18.3,10.5,18.5,10.5C18.4,10.5,18.4,10.5,18.5,10.5L18.5,10.5L18.5,10.5z M15,15.4L15,15.4
		c-0.1,0-0.1,0-0.2,0c0,0,0,0-0.1,0.1c0,0,0,0,0.1,0c0.1,0,0.2,0,0.3,0c0.1,0,0.1,0,0.1-0.1c0,0,0,0,0,0c0,0,0,0,0,0
		C15.1,15.4,15,15.4,15,15.4L15,15.4L15,15.4z M15.8,15.9L15.8,15.9c0,0-0.1-0.1-0.1-0.1c0,0,0,0,0,0c0,0-0.1,0.1-0.1,0
		c0,0-0.1,0-0.1,0c0,0,0,0-0.1,0.1c0,0,0.1,0,0.1,0C15.5,16,15.6,15.9,15.8,15.9L15.8,15.9L15.8,15.9z M15,15.6c-0.1,0-0.1,0-0.1,0
		c0,0,0,0,0,0.1c0,0,0,0,0.1,0c0,0,0.1,0,0.1,0C15,15.7,15,15.7,15,15.6C15,15.6,15,15.6,15,15.6C15,15.6,15,15.6,15,15.6z
		 M12.5,15.2C12.5,15.2,12.5,15.2,12.5,15.2C12.5,15.2,12.5,15.3,12.5,15.2c0,0.1,0,0.2,0.1,0.2c0,0,0,0,0.1,0c0,0,0,0,0,0
		C12.6,15.3,12.5,15.2,12.5,15.2L12.5,15.2L12.5,15.2z M14.2,15.6C14.3,15.5,14.3,15.5,14.2,15.6c0.1-0.1,0.1-0.1,0.1-0.1
		c0,0-0.1,0-0.1,0l0,0C14.2,15.4,14.2,15.5,14.2,15.6C14.2,15.5,14.2,15.5,14.2,15.6L14.2,15.6z M10.9,10.3c-0.1,0-0.1,0.1-0.2,0.1
		C10.8,10.4,10.9,10.4,10.9,10.3z"/>
            <path class="st0" d="M10.3,13.7c0-0.1,0-0.1,0-0.1c0,0,0-0.1,0-0.1c0-0.1,0-0.1,0-0.1c-0.1,0-0.1-0.1-0.1-0.2s0-0.1,0-0.2
		c0,0,0-0.1,0-0.1c0-0.1,0-0.2,0-0.3c0-0.1,0-0.1,0-0.2c0,0,0-0.1,0-0.1c0,0,0-0.1,0-0.2c0,0,0-0.1,0-0.1c0-0.2,0-0.4,0-0.6
		c0,0,0,0,0-0.1c0.1-0.1,0.1-0.1,0.1-0.2c0,0,0-0.1,0-0.1c0,0,0-0.1,0.1-0.1c0-0.1,0.1-0.2,0.1-0.3c0,0,0-0.1,0-0.1c0,0,0,0,0.1,0
		c0,0,0,0,0,0.1c0,0,0,0.1,0,0.1c0,0,0,0.1,0,0.1c0,0,0,0.1-0.1,0.2c0,0,0,0,0,0c0,0.1,0,0.1-0.1,0.2c0,0.1,0,0.2,0,0.3
		c0,0.1,0,0.2-0.1,0.3c0,0.1,0,0.1,0,0.2c0,0.2,0,0.4,0,0.6c0,0.1,0,0.1,0,0.2c0,0.1,0,0.1,0,0.2c0,0.1,0,0.3,0,0.4c0,0,0,0,0,0
		c0.1,0.1,0.1,0.1,0,0.2c0,0,0,0,0,0.1c0,0,0,0.1,0.1,0.1c0,0,0,0.1,0,0.1c0,0.1,0,0.1,0.1,0.2c0,0,0,0,0,0c0.1,0.1,0.1,0.2,0.2,0.3
		c0,0,0,0,0,0.1c0,0,0,0,0,0.1c0,0,0,0-0.1,0c0,0-0.1-0.1-0.1-0.1c-0.1,0-0.1-0.1-0.1-0.2C10.5,14,10.4,13.9,10.3,13.7
		C10.3,13.8,10.3,13.8,10.3,13.7L10.3,13.7L10.3,13.7z"/>
            <path class="st0" d="M14.6,16.4c0,0-0.1,0-0.1-0.1c0,0,0,0-0.1,0c0,0-0.1,0-0.1,0c0,0,0,0,0-0.1c0,0,0,0,0-0.1c0.1,0,0.1,0,0.2,0.1
		c0,0,0,0,0.1,0c0,0,0.1,0,0.1,0c0,0,0.1,0,0.1,0.1C14.7,16.4,14.7,16.4,14.6,16.4L14.6,16.4C14.6,16.4,14.6,16.4,14.6,16.4
		L14.6,16.4L14.6,16.4z"/>
            <path class="st0" d="M12.3,8.4C12.3,8.4,12.2,8.4,12.3,8.4c-0.1-0.1-0.1-0.1,0-0.1c0,0,0.1,0,0.1-0.1c0,0,0.1,0,0.1,0
		c0,0,0,0.1,0,0.1C12.4,8.3,12.3,8.4,12.3,8.4L12.3,8.4z"/>
            <path class="st0" d="M15.8,8.1c0.1,0,0.1,0,0.1,0.1c0,0,0,0.1-0.1,0.1C15.8,8.3,15.7,8.2,15.8,8.1C15.8,8.1,15.8,8.1,15.8,8.1z"/>
            <path class="st0" d="M19.1,11.2C19.1,11.2,19,11.3,19.1,11.2c-0.1,0.1-0.1,0-0.1,0C19,11.1,19,11.1,19.1,11.2
		C19,11.1,19.1,11.2,19.1,11.2C19.1,11.2,19.1,11.2,19.1,11.2z"/>
            <path class="st0" d="M12.1,8.5C12.1,8.5,12.1,8.5,12.1,8.5c-0.1,0-0.1,0-0.1,0C12,8.5,12,8.4,12.1,8.5C12.1,8.4,12.1,8.5,12.1,8.5
		L12.1,8.5L12.1,8.5z"/>
            <path class="st0" d="M19,10.9C19,10.9,18.9,10.9,19,10.9C18.9,10.9,18.9,10.9,19,10.9C18.9,10.8,18.9,10.8,19,10.9
		C18.9,10.8,19,10.8,19,10.9C19,10.9,19,10.9,19,10.9z"/>
            <path class="st0" d="M10.7,12c0,0-0.1,0-0.1,0c0,0,0,0,0-0.1c0,0,0,0,0,0c0,0,0,0,0.1,0C10.6,11.9,10.7,11.9,10.7,12L10.7,12
		L10.7,12z"/>
            <path class="st0" d="M15.6,15.4C15.6,15.4,15.6,15.4,15.6,15.4L15.6,15.4C15.5,15.3,15.6,15.3,15.6,15.4
		C15.6,15.3,15.6,15.3,15.6,15.4L15.6,15.4L15.6,15.4z"/>
        </g>

    </g>
</svg>
