<svg xmlns="http://www.w3.org/2000/svg" viewBox="0 0 342.19 241.76">
    <g>
        <path d="m 342.19 13.38 v 217.58 c -0.53 0.65 -1.22 0.91 -2.05 0.94 c -0.36 0.01 -0.71 0.06 -1.07 0.05 c -8.72 -0.13 -17.44 0.5 -26.15 0.36 c -8.36 -0.14 -16.72 -0.44 -25.08 -0.31 c -13 0.2 -26.01 -0.31 -39.01 0.02 c -9.49 0.24 -18.98 0 -28.48 0.25 c -4.26 0.11 -8.56 -0.34 -12.85 -0.29 c -3.5 0.04 -7 -0.1 -10.5 0.34 c -1.9 0.24 -3.86 0.2 -5.78 -0.13 c -2.65 -0.46 -5.27 0.14 -7.91 0.18 c -8.08 0.1 -16.16 0.12 -24.24 0 c -10.28 -0.14 -20.56 -0.63 -30.83 -0.32 c -7.42 0.22 -14.86 0.28 -22.25 0.16 c -11.08 -0.18 -22.16 -0.28 -33.23 -0.15 c -7.72 0.09 -15.42 -0.21 -23.13 -0.11 c -6.22 0.08 -12.43 0.28 -18.64 0.38 c -9.29 0.15 -18.57 -0.56 -27.87 -0.38 c -0.92 0.02 -1.85 0.02 -3.12 -0.57 L 0 13.64 c 1.48 -0.73 6.15 -1.45 6.85 -1.51 c 5.92 -0.52 7.15 -0.48 13.08 0.17 c 2.94 0.32 5.86 0.04 8.77 -0.36 c 2.99 -0.42 5.99 -0.39 8.99 -0.39 c 9.23 0 18.46 -0.22 27.67 0.05 c 20.52 0.59 41.04 0.19 61.55 0.43 c 12 0.14 24.01 0.12 36 -0.16 c 13.8 -0.32 27.58 0.3 41.37 0.18 c 20.58 -0.17 41.17 0.22 61.74 -0.2 c 13.59 -0.27 27.16 -0.09 40.74 -0.3 c 2.36 -0.04 4.72 -0.05 7.06 0.39 c 5.85 1.12 11.69 -0.2 17.55 0 c 2.93 0.09 5.84 0.42 8.77 0.55 c 0.83 0.04 1.52 0.24 2.05 0.9 Z"/>
        <path d="m0,1.04h9.45c4.17-.48,8.35-.07,12.53-.22,1.84-.07,3.7.22,5.53-.12l4.9-.12c3.17.51,6.37.23,9.55.22,4.44-.01,8.89.49,13.3-.8l8.53.27c3.21.97,6.46.41,9.7.55,11.1,0,22.2,0,33.3,0,4.91,0,9.81,0,14.72,0,.7,0,1.42.19,2.09-.2h35.61c.95.44,1.96.2,2.94.2,6.19.03,12.38.02,18.57,0,.7,0,1.43.19,2.09-.21h35.61c3.24.48,6.49.12,9.74.2,2.34.06,4.68.01,7.02.01,11.1,0,22.2,0,33.31,0,2.9-.13,5.82.26,8.72-.21l13.78-.05c4.36.56,8.75.16,13.12.24,1.19.02,2.41.22,3.59-.07l6.6-.16c3.03.55,6.08.18,9.12.24,2.9.06,5.8.01,8.71.01,3.29.14,6.79-.29,10.07.21v5.61c-2.79.15-6-.65-8.81-.49-2.92.16-5.86.04-8.79.04h-17.8c-2.93,0-5.86.07-8.79-.02-1.83-.06-3.55.64-5.4.49-1.85-.16-3.71-.01-5.57-.04-.81-.01-1.68.26-2.41-.4-.12-.11-.47-.1-.62,0-1.25.78-2.48-.19-3.71.02-1.01.17-2.02.37-3.05.38-14.44.04-28.89.03-43.33.02-2.1,0-4.15.81-6.25.42-4.07-.74-8.17-.34-12.26-.4-4.15-.06-8.29,0-12.44-.03-.87,0-1.74-.33-2.61-.39-.92-.07-1.88-.14-2.78,0-5.36.83-10.75.29-16.13.39-5.5.1-11.01.02-16.51.02s-10.87,0-16.3,0c-2.17,0-4.29-.77-6.47-.42-4.15.67-8.32.36-12.48.41-4.22.04-8.44-.11-12.65.07-1.57.07-3.18.55-4.75.34-5.15-.7-10.32-.32-15.48-.39-5.29-.06-10.58-.01-15.87-.01s-10.44.02-15.66-.02c-.94,0-1.88-.38-2.82-.38-.87,0-1.85-.41-2.62.39-.03.04-.15.03-.21,0-1.96-.92-3.89.27-5.87.05-1.98-.22-4.04.2-5.99-.1-4.59-.7-9.18-.27-13.77-.36-4.64-.09-9.29-.02-13.94-.02s-9.29-.05-13.94.02C4.15,6.24,2.04,6.56,0,6.75"/>
        <path d="m342.19,241.64c-8.15,0-16.59.32-24.72-.1-6.89-.36-13.76-.22-20.64-.31-6.94-.09-13.87-.02-20.81-.02h-41.4c-6.94,0-13.89.33-20.8-.1-5.46-.34-10.9-.21-16.35-.3-5.5-.09-11.01-.02-16.52-.02h-33.04c-5.51,0-11.04-.34-16.51.09-6.82.52-13.62.22-20.42.32-6.93.1-13.87.02-20.81.02H28.17c-4.28.77-8.6.35-12.91.41-4.36.06-8.72.01-13.09.01H0v-5.98c1.48.14,2.68-.42,4.01.37.26.16.7.03,1.05.03,1.43,0,2.86-.03,4.29,0,4.52.13,9.07.68,13.54.32,5.75-.46,11.47-.21,17.21-.31,5.86-.1,11.73-.02,17.59-.02h69.72c5.79,0,11.61-.31,17.37.09,5.46.38,10.9.25,16.35.32,5.43.07,10.87.02,16.3.02s11.04.34,16.51-.09c6.75-.53,13.48-.22,20.21-.32,6.79-.1,13.59-.02,20.38-.02h61.14c6.79,0,13.59-.07,20.38.03,2.66.04,5.33.75,7.97.35,4.37-.65,8.77-.11,13.12-.46,1.58-.13,3.44-.37,5.03-.39v6.05Z"/>
    </g>
</svg>
