<svg xmlns="http://www.w3.org/2000/svg" viewBox="0 0 51.72 240.58">
    <g>
        <path d="m0,229.61c0-72.44,0-144.88,0-217.32.92,0,1.74.06,2.66-.02.94-.07,1.87-.39,2.81-.4,8.75-.03,17.49-.02,26.2-.02,6.67,3.82,4.54,2.58,7.49,6.67,0,3.39.01,6.82-.02,10.25,0,.52-.22,1.04-.36,1.66.09.25.38.63.35.99-.27,3.97.56,7.9.43,11.85-.15,4.59.35,9.19-.33,13.79-.29,1.94-.5,4.07.35,6.04v8.37c0,.07.01.15,0,.21-.42,2.07-.36,2.06-.04,3.95.11.63.27,1.36-.23,2.04-.24.33-.32,1.14-.1,1.37.55.58.34,1.21.35,1.8.03,1.53-.22,3.04-.33,4.55-.15,2.28-.28,4.59.26,6.92.4,1.7.1,3.56.06,5.35-.02.67.11,1.32-.33,2.02-.32.52-.35,1.57-.02,2.06.51.77.38,1.5.34,2.23-.17,3.81.13,7.6-.31,11.43-.44,3.89-.13,7.86-.08,11.8.02,1.38-.27,2.77.36,4.14.27.59.28,1.54,0,2.1-.5.96-.28,1.91-.38,2.86-.15,1.47.38,2.9.39,4.33.08,8.37.04,16.75.02,25.12,0,.59-.23,1.18-.36,1.79.55.35.57,1.08.34,1.48-.61,1.08-.34,2.19-.37,3.28-.05,1.86.01,3.72-.03,5.58-.01.52-.24,1.03-.32,1.38.13.58.34,1.04.32,1.48-.08,1.59.22,3.18-.34,4.78-.29.83-.08,1.85.29,2.83.34.87.01,1.98.09,2.98.07,1.02.36,2.03.39,3.04.06,2-.1,4.02.05,6.01.16,2.06-.52,4.01-.48,6.05.07,4.29-.02,8.59.04,12.88.03,2.25-.31,4.3-1.65,6.21-.4.57-.78,1.06-1.31,1.49-.44.36-.82.79-1.35,1.31-1.23.46-2.65.98-4.37,1.62h-3.18c-.11-.31-.19-.56-.27-.8h-1.55c-.29.14-.61.44-.87.4-1.21-.16-2.48.48-3.64-.37-.27-.2-.95-.2-1.22,0-.8.6-1.77.55-2.64.77-.99.25-2.09.06-3.15.06-3.56-.22-7.14.41-10.69-.39-1.08-.24-2.15-.04-3.28-.04Z"/>
        <path d="m45.68,8.22c-.3-1.32-1.74-1.58-2.26-2.5-3.57-.91-7.1-.14-10.54-.59-2.01-.26-3.99-.26-5.98-.35-.58-.14-1.15-.35-1.73-.41-.63-.07-1.27-.02-1.91-.02h-2.33l-1.24.12c.01.1.02.2.03.31h.78v.43c-.82,0-1.65-.03-2.47.02-.18,0-.35.27-.52.41h-3.73c-.09-.33-.14-.53-.19-.72-2.29-.59-4.52.29-6.78.29-2.27,0-4.54,0-6.8,0V.06h43.97c.9-.28,1.34.5,2,.83,2.6,1.3,2.62,1.26,3.98,3.41.43.68,1.05,1.3,1.24,2.04.31,1.18.47,2.44.45,3.66-.09,5.99.39,12-.4,17.98h-.85c0,1.49-.02,2.83.02,4.17,0,.19.27.37.41.55.28.23.57.45.85.68,0,1.15.06,2.29-.02,3.43-.07,1.16-.22,2.33-.42,3.47-.23,1.29.45,2.44.45,3.69-.02,3.58.06,7.16-.03,10.74-.09,3.59.27,7.18-.33,10.79-.26,1.57-.53,3.36.34,4.97.09.17.1.53,0,.62-.72.64-.39,1.47-.4,2.2-.03,3.72-.03,7.44,0,11.17,0,.53.16,1.1.21,1.6.18,1.65.21,3.37-.04,5.01-.15.98-.36,2.02-.05,2.86.24.64.28,1.21.28,1.81.02,11.81.01,23.62.01,35.43,0,.43.16.96-.03,1.27-.99,1.65.13,3.59-.78,5.27-.18.34.35,1,.36,1.51.04,2.36.15,4.73-.02,7.08-.16,2.34.63,4.59.45,6.91-.08,1.09-.39,2.17-.39,3.26.01,1.3.38,2.6.37,3.9-.02,2.95,0,5.89-.32,8.85-.37,3.54-.05,7.15-.1,10.73-.05,3.52.19,7.04-.36,10.57-.24,1.54-.05,3.15.29,4.77.36,1.71.2,3.57.05,5.35-.16,1.78.53,3.44.48,5.19-.07,2.86.07,5.73-.04,8.59-.11,2.73.14,5.45-.3,8.21-.45,2.79-.1,5.71-.1,8.57v2.64c-.19.28-.35.44-.42.62-.86,2.36-2.61,3.98-4.66,5.21-1.13.68-2.51.91-3.89.91-14.09-.01-28.17,0-42.26,0v-6.01c.76-.02,1.55-.09,2.16.44.54.46,1.14.42,1.75.42,1.28,0,2.56-.02,3.84.02.38.01.75.21,1.34.38.05-.03.27-.34.46-.33,1.47.12,2.84-.49,4.29-.5,2.92-.02,5.83,0,8.75-.01,1.24,0,2.38.67,3.67.45,4.97-.88,9.98-.24,14.97-.45,1.08-.05,2.12-.35,2.91-1.21.32-.35.74-.62,1.11-.92.32-.06.82.21.85-.43-.14-.14-.28-.29-.43-.43v-.86h.43c.14.14.28.29.43.43.57,0,.4-.44.43-.75.2-2.07-.73-4.05-.43-6.12.03-.68-.04-1.38.12-2.03.37-1.54.41-1.55-.55-3.12.3-2.25-.16-4.5-.53-6.66-.46-2.76-.38-5.49-.23-8.19.1-1.72.55-3.49.28-5.18-.57-3.52-.3-7.03-.35-10.55-.01-.94.32-1.88.39-2.82.07-.99.2-2.04-.02-2.99-.77-3.29-.38-6.61-.34-9.9.03-2.58.46-5.15.39-7.75-.07-2.64-.02-5.29-.02-7.93v-7.93c0-2.64-.25-5.32.07-7.92.29-2.31.3-4.6.36-6.86.44-.64.86-1.26,1.27-1.87,0-.79,0-1.57,0-2.36-.13-1.64.35-3.34-.42-4.93.6-.37.4-.97.42-1.52v-.43c-.56-.59-.29-1.46-.73-2.52-.1.97-.16,1.54-.21,2.09h-.76c-.14-.18-.41-.37-.41-.55-.02-3.92-.35-7.87.08-11.74.39-3.52.22-7.02.31-10.52.09-3.56.02-7.12.02-10.69.28-.32.63-.61.84-.97.6-1.04.42-2.2.44-3.32v-1.29c-.03-1.53-.06-3.07-.1-4.6,0-.03-.09-.07-.14-.1-.2.2-.39.4-.62.62,0,1.31.02,2.64-.02,3.97,0,.18-.27.36-.41.54v-6.44c.6-.8.6-1.77,0-2.58v-5.85c.27-.23.59-.5.85-.73v-2.98c-.3-.41-.58-.79-.85-1.17v-4.29c.83-.47.91-1.26.84-2.08-.11-1.3-.4-2.59-.39-3.88.01-1.79-.32-3.61.35-5.39.18-.47-.21-1.15-.35-1.77.25-.26.54-.57.82-.86v-5.78c-.14-.14-.28-.29-.43-.43v-6.87c.12-.05.35-.1.35-.15.04-1.28.06-2.55.08-3.83-.65-.31.13-.95-.37-1.46-.32-.33-.06-1.23-.06-1.87s.06-1.29-.02-1.93c-.07-.59-.38-1.17-.39-1.75-.04-2.93-.05-5.86,0-8.79.01-.8.32-1.59.39-2.4.07-.85.02-1.7.02-2.58-.29-.2-.57-.39-.85-.58Z"/>
    </g>
</svg>
