<svg xmlns="http://www.w3.org/2000/svg" viewBox="0 0 51.59 240.61">
    <g>
        <path d="m13.66,225.04c-.74-1.61-1.44-3.22-1.2-5.08.11-.84,0-1.7.02-2.55.05-2.23.09-4.46,0-6.69-.11-2.58.19-5.15-.36-7.74-.35-1.64-.13-3.42-.05-5.13.08-1.73-.41-3.51.41-5.18-.2-2.04.29-4.03.39-6.04.04-.86-.38-1.74-.36-2.61.03-1.37-.37-2.8.38-4.12.09-.16.1-.53,0-.62-.72-.64-.36-1.46-.4-2.2-.05-1.07-.01-2.14-.01-3.21,0-1.14.31-2.41-.08-3.4-.44-1.1-.21-1.94.08-2.89.02-.07.03-.16,0-.21-.74-1-.39-2.16-.4-3.24-.03-3.55-.18-7.1-.02-10.65.21-4.83-.36-9.66.35-14.49.25-1.72.52-3.63-.32-5.4-.19-.41-.23-1.15.01-1.45.6-.73.35-1.51.37-2.27.06-2.28.16-4.57.04-6.85-.17-3,.22-6-.4-9.01-.31-1.51-.12-3.14-.04-4.7.12-2.44-.39-4.91.39-7.33.16-.51.22-1.3-.06-1.65-.49-.61-.35-1.21-.32-1.8.09-2.16.05-4.31.3-6.48.3-2.53.37-5.16-.27-7.75-.3-1.21-.05-2.56-.05-3.85,1.03-1.17-.14-2.33,0-3.5.02-.21-.08-.5.02-.63.81-1.01.6-2.3.31-3.24-.35-1.13-.34-2.2-.3-3.28.09-2.44-.3-4.89.34-7.34.32-1.2.11-2.56.04-3.84-.07-1.23-.37-2.45-.39-3.68-.06-3.29.1-6.58-.05-9.86-.15-3.25.58-6.44.49-9.68-.04-1.43-.41-2.94.38-4.33.09-.16.1-.54,0-.62-.71-.56-.39-1.32-.4-1.98-.03-3.07-.02-6.14-.02-9.04,1.09-1.59,1.95-3.15,3.29-4.39,1.39-1.29,3.3-1.38,4.71-2.41,4.73,0,9.41-.08,14.08.02,4.62.1,9.18-1.35,13.79-.52,1.03.19,2.19.47,3.25.47v217.74c-1.35,0-2.83-.64-4-.19-1.36.53-2.61.19-3.9.31-1.33.12-2.69.03-4.04.03-.57,0-1.14-.04-1.7,0-.8.07-1.58-.11-2.41.35-.55.3-1.49.03-2.21-.15-1.14-.29-1.59-.34-3.17-.22-1.13.08-2.27.02-3.42.02l-1.05-1.01c-.52.29-1.09.62-1.74.98"/>
        <path d="m24.8,5.16c-1.26,0-2.57-.2-3.79.04-3.38.66-6.78.2-10.16.41-1.98.13-3.45,1.34-4.76,2.76.06.96-.73,1.79-.43,2.8,0,2.77.05,5.54-.01,8.31-.06,2.71.04,5.41-.33,8.15-.38,2.86-.09,5.81-.07,8.73,0,.18.27.37.41.55v2.57c-.14.17-.38.32-.41.51-.06.39-.02.8-.02,1.21,0,.29,0,.57,0,.86-.14.17-.39.33-.41.51-.05.54-.02,1.09-.02,1.63.14.86.28,1.72.43,2.57.1.37.2.73.43,1.58,0,.39-.02,1.29.02,2.18,0,.18.26.35.41.53-.04,2.54-.08,5.09-.13,7.63,0,.1-.19.2-.31.32.1.09.29.18.3.28.06,1.69.1,3.38.14,5.06-.14.86-.37,1.71-.41,2.57-.05,1.22.12,2.41.33,3.63.3,1.78.09,3.65.06,5.48,0,.11-.27.22-.41.33-.78.14-.52.88-.35,1.09.55.67.41,1.15-.05,1.77-.16.22-.03.66-.03,1.01v3.43c0,1.75,0,3.5,0,5.26,0,.31-.15.75.42.75.58,0,.42.46.42.77.01,1.78-.01,3.56.02,5.34.01.52.18,1.04.31,1.75-.63.86-.31,2.08-.3,3.24.01,1.15-.37,2.38.4,3.45-.73,1.37-.55,2.84-.23,4.24.11.47.21.93.22,1.39.02,4.13.03,8.26-.01,12.39,0,.87-.26,1.73-.41,2.6h-.66c-.13-.28-.26-.58-.39-.85h-.58c.56,1.02.4,2.1.3,3.13-.04.4-.4.8-.39,1.31.03,2.04.01,4.08.01,6.13.29.11.57.14.76.3.22.18.35.47.52.71,0,1,0,2,0,3-.02,2.02.6,3.98.46,6.03-.15,2.06-.03,4.14-.03,6.21v12.2c0,2.07-.28,4.19.06,6.2.67,3.95.2,7.89.35,11.82.07,1.73-.78,3.43-.4,5.17.86,3.92.22,7.88.39,11.82.06,1.51-.79,3.01-.38,4.52.74,2.71.27,5.45.37,8.18.03.86-.25,1.74-.4,2.6-.15.87.32,1.79-.35,2.65-.24.31-.03.96-.08,1.45-.14,1.3.39,2.66-.41,3.9-.1.15-.08.45,0,.63.78,1.9.27,3.88.42,5.82-.14.18-.4.35-.41.53-.04,1.11-.02,2.22-.02,3.33.28.43.57.86.85,1.29.43.14.85.29,1.28.43.32.39.64.79.98,1.21,4.32.96,8.73.3,13.11.51,1.78.09,3.62.64,5.32.34,3.63-.63,7.24-.23,10.86-.32,1.48-.04,2.97.29,4.45.48.17.02.31.24.44.35.49-.16.91-.38,1.36-.42.77-.07,1.55-.01,2.33-.02,1.49,0,3,.16,4.33-.83.23-.17.69-.02,1.04-.02v6h-.85c-.54-.58-1.16-.58-1.7,0H14.17c-.18-.14-.35-.4-.53-.41-1.24-.04-2.48-.02-3.72-.02h-2.13c-1.16.14-2.16-.19-2.96-1.06-.19-.21-.36-.5-.61-.59-2.09-.77-2.32-3.04-3.55-4.5-.22-.26-.09-.81-.11-1.23-.22-4.15.26-8.3-.35-12.47-.4-2.73-.14-5.56-.06-8.34.09-2.73-.03-5.44.31-8.19.44-3.61-.07-7.31.5-10.95.14-.91.08-1.86,0-2.78-.07-.87-.38-1.74-.39-2.61-.05-3.5.03-7-.03-10.5-.07-3.51.29-7.03-.37-10.54-.25-1.31-.08-2.71-.02-4.06.03-.73.23-1.45.35-2.17-.14-.2-.29-.42-.31-.44.16-.67.28-1.12.37-1.57.32-1.62-.45-3.14-.44-4.75.02-2.24.61-4.42.47-6.68-.14-2.28-.03-4.57-.03-6.85,0-.14-.01-.29,0-.43.02-.13.04-.28.11-.38.66-.9.53-2.08.22-2.83-.41-1-.15-1.93-.33-2.86-.18-.94-.46-1.83-.45-2.82.06-4.21.03-8.43.03-12.64s-.07-8.29.02-12.43c.08-4.15-.44-8.34.42-12.46.24-1.16-.39-2.15-.46-3.25-.08-1.48.37-2.89.41-4.32.1-4.21.05-8.43.02-12.64,0-.59-.21-1.18-.28-1.54.12-.63.27-1.08.29-1.54.04-1.21.07-2.43,0-3.64-.07-1.23-.37-2.45-.39-3.68-.06-3.36-.08-6.71,0-10.07.08-3.37-.34-6.75.37-10.11.25-1.16.04-2.42.04-3.63-.05-1.24.7-2.39.44-3.66.94-.92.21-2.21.74-3.33.46-.98.1-2.36.1-3.59-.28-.1-.56-.13-.75-.29-.22-.18-.35-.47-.52-.71-.14-.8-.35-1.59-.41-2.39-.07-.92-.04-1.85-.01-2.78.17-5.07-.45-10.16.51-15.31.99-1.4,1.75-3.12,3.33-4.22C5.83,1.05,7.69,0,10.04,0c13.85.03,27.7.01,41.55.01v5.58c-1.9,0-3.8.04-5.7-.02-1.07-.03-2.15.22-3.23-.35-.47-.25-1.39-.37-1.9.35-.83-.77-1.86-.26-2.78-.41-.58.14-1.14.35-1.73.41-.63.07-1.27.02-1.9.02-2.39,0-4.79,0-7.18,0-.35,0-.7-.08-1.05-.13"/>
    </g>
</svg>
